<svg height="480pt" viewBox="0 0 480 480" width="480pt" xmlns="http://www.w3.org/2000/svg"><path d="m16 272h136v192h-136zm0 0" fill="#57565c"/><path d="m272 136h192v328h-192zm0 0" fill="#898890"/><path d="m152 208h192v256h-192zm0 0" fill="#e0e0e2"/><path d="m67.28125 148.71875c3.039062 2.964844 4.742188 7.035156 4.71875 11.28125 0 8.835938-7.164062 16-16 16s-16-7.164062-16-16 7.164062-16 16-16c4.246094-.023438 8.316406 1.679688 11.28125 4.71875zm0 0" fill="#d80027"/><path d="m144 88c.015625 3.03125-.847656 6.003906-2.480469 8.558594-2.933593 4.632812-8.035156 7.441406-13.519531 7.441406-8.808594-.066406-15.933594-7.191406-16-16 0-8.835938 7.164062-16 16-16s16 7.164062 16 16zm0 0" fill="#d80027"/><path d="m228.800781 134.398438c4.175781 5.570312 4.273438 13.203124.238281 18.875-4.035156 5.671874-11.273437 8.085937-17.90625 5.96875-6.632812-2.117188-11.132812-8.28125-11.132812-15.242188-.015625-3.03125.847656-6.003906 2.480469-8.558594 2.933593-4.632812 8.035156-7.441406 13.519531-7.441406 5.027344.035156 9.757812 2.398438 12.800781 6.398438zm0 0" fill="#d80027"/><path d="m32 240h120v32h-120zm0 0" fill="#acabb1"/><path d="m64 408h48v56h-48zm0 0" fill="#b39a7c"/><path d="m224 408h48v56h-48zm0 0" fill="#b39a7c"/><path d="m104 352h24v24h-24zm0 0" fill="#bdfdff"/><path d="m48 352h24v24h-24zm0 0" fill="#bdfdff"/><path d="m48 304h24v24h-24zm0 0" fill="#bdfdff"/><path d="m72 304h-24v24c0-13.253906 10.746094-24 24-24zm0 0" fill="#e2feff"/><path d="m104 304h24v24h-24zm0 0" fill="#bdfdff"/><path d="m176 344h32v32h-32zm0 0" fill="#bdfdff"/><path d="m232 344h32v32h-32zm0 0" fill="#bdfdff"/><path d="m320 288v27.601562c-1.359375 1.4375-2.640625 2.878907-3.921875 4.398438h-28.078125v-32zm0 0" fill="#bdfdff"/><path d="m232 288h32v32h-32zm0 0" fill="#bdfdff"/><path d="m176 288h32v32h-32zm0 0" fill="#bdfdff"/><path d="m288 232h32v32h-32zm0 0" fill="#bdfdff"/><path d="m232 232h32v32h-32zm0 0" fill="#bdfdff"/><path d="m176 232h32v32h-32zm0 0" fill="#bdfdff"/><path d="m208 232h-32v32c0-17.671875 14.328125-32 32-32zm0 0" fill="#e2feff"/><path d="m264 232h-32v32c0-17.671875 14.328125-32 32-32zm0 0" fill="#e2feff"/><path d="m320 232h-32v32c0-17.671875 14.328125-32 32-32zm0 0" fill="#e2feff"/><path d="m320 288h-32v32c0-17.671875 14.328125-32 32-32zm0 0" fill="#e2feff"/><path d="m264 288h-32v32c0-17.671875 14.328125-32 32-32zm0 0" fill="#e2feff"/><path d="m208 288h-32v32c0-17.671875 14.328125-32 32-32zm0 0" fill="#e2feff"/><path d="m208 344h-32v32c0-17.671875 14.328125-32 32-32zm0 0" fill="#e2feff"/><path d="m264 344h-32v32c0-17.671875 14.328125-32 32-32zm0 0" fill="#e2feff"/><path d="m472 376c0 48.601562-39.398438 88-88 88s-88-39.398438-88-88 39.398438-88 88-88 88 39.398438 88 88zm0 0" fill="#ff9811"/><path d="m448 376c0 35.347656-28.652344 64-64 64s-64-28.652344-64-64 28.652344-64 64-64 64 28.652344 64 64zm0 0" fill="#ffda44"/><path d="m392 368v-16c4.417969 0 8 3.582031 8 8h16c0-13.253906-10.746094-24-24-24v-8h-16v8c-13.253906 0-24 10.746094-24 24s10.746094 24 24 24v16c-4.417969 0-8-3.582031-8-8h-16c0 13.253906 10.746094 24 24 24v8h16v-8c13.253906 0 24-10.746094 24-24s-10.746094-24-24-24zm-24-8c0-4.417969 3.582031-8 8-8v16c-4.417969 0-8-3.582031-8-8zm24 40v-16c4.417969 0 8 3.582031 8 8s-3.582031 8-8 8zm0 0" fill="#fff"/><path d="m0 464h480v16h-480zm0 0" fill="#57565c"/><path d="m61.65625 165.65625-11.3125-11.3125 72-72c2.652344-2.652344 6.789062-3.109375 9.953125-1.097656l83.328125 53.035156 132.472656-99.34375 9.597656 12.796875-136.894531 102.664063c-2.664062 2-6.285156 2.140624-9.097656.355468l-82.582031-52.5625zm0 0" fill="#1a6fb0"/><path d="m370.398438 88.023438 37.601562-88.023438-95.03125 11.449219zm0 0" fill="#ff5023"/><g fill="#bdfdff"><path d="m296 160h16v16h-16zm0 0"/><path d="m328 160h16v16h-16zm0 0"/><path d="m360 160h16v16h-16zm0 0"/><path d="m392 160h16v16h-16zm0 0"/><path d="m424 160h16v16h-16zm0 0"/><path d="m296 192h16v16h-16zm0 0"/><path d="m328 192h16v16h-16zm0 0"/><path d="m360 192h16v16h-16zm0 0"/><path d="m392 192h16v16h-16zm0 0"/><path d="m424 192h16v16h-16zm0 0"/><path d="m360 224h16v16h-16zm0 0"/><path d="m392 224h16v16h-16zm0 0"/><path d="m424 224h16v16h-16zm0 0"/><path d="m360 256h16v16h-16zm0 0"/><path d="m392 256h16v16h-16zm0 0"/><path d="m424 256h16v16h-16zm0 0"/></g><path d="m56 176c-8.835938 0-16-7.164062-16-16s7.164062-16 16-16 16 7.164062 16 16-7.164062 16-16 16zm0-16" fill="#ff5023"/><path d="m128 104c-8.835938 0-16-7.164062-16-16s7.164062-16 16-16 16 7.164062 16 16-7.164062 16-16 16zm0-16" fill="#ff5023"/><path d="m216 160c-8.835938 0-16-7.164062-16-16s7.164062-16 16-16 16 7.164062 16 16-7.164062 16-16 16zm0-16" fill="#ff5023"/><path d="m136 200h224v16h-224zm0 0" fill="#57565c"/><path d="m152 216h192v8h-192zm0 0" fill="#c6c5ca"/><path d="m128 304h-24v24c0-13.253906 10.746094-24 24-24zm0 0" fill="#e2feff"/><path d="m72 352h-24v24c0-13.253906 10.746094-24 24-24zm0 0" fill="#e2feff"/><path d="m128 352h-24v24c0-13.253906 10.746094-24 24-24zm0 0" fill="#e2feff"/></svg>