<svg id="Layer_3" enable-background="new 0 0 64 64" height="512" viewBox="0 0 64 64" width="512" xmlns="http://www.w3.org/2000/svg"><g><path d="m58 50h-52c-2.209 0-4-1.791-4-4v-32c0-2.209 1.791-4 4-4h52c2.209 0 4 1.791 4 4v32c0 2.209-1.791 4-4 4z" fill="#a2dbf7"/><path d="m2 41.738v4.262c0 2.209 1.791 4 4 4h52c2.209 0 4-1.791 4-4v-4.262z" fill="#8892a0"/><path d="m10 2h44v30h-44z" fill="#c1c8d1"/><path d="m10 2v25.967c.498.019.997.033 1.5.033 17.156 0 31.29-11.359 33.257-26z" fill="#e6e9ed"/><path d="m17 17 1.343-1.343c3.622-3.622 8.535-5.657 13.657-5.657 5.122 0 10.035 2.035 13.657 5.657l1.343 1.343-1.343 1.343c-3.622 3.622-8.535 5.657-13.657 5.657-5.122 0-10.035-2.035-13.657-5.657z" fill="#fff"/><circle cx="32" cy="17" fill="#c18e59" r="7"/><circle cx="32" cy="17" fill="#fff" r="3"/><path d="m42.011 61c-1.286-1.346-2.011-3.134-2.011-5 0-1.921.763-3.763 2.121-5.121l.879-.879h-22l.879.879c1.358 1.358 2.121 3.2 2.121 5.121 0 1.866-.725 3.654-2.011 5h-10.989v2h42v-2z" fill="#4d535a"/><g><path d="m57 45h2v2h-2z" fill="#fff"/></g><g><path d="m15 12h-2v-6c0-.552.447-1 1-1h6v2h-5z" fill="#fff"/></g><g><path d="m20 29h-6c-.553 0-1-.448-1-1v-6h2v5h5z" fill="#fff"/></g><g><path d="m51 12h-2v-5h-5v-2h6c.553 0 1 .448 1 1z" fill="#fff"/></g><g><path d="m50 29h-6v-2h5v-5h2v6c0 .552-.447 1-1 1z" fill="#fff"/></g></g></svg>