<svg height="512pt" viewBox="0 -6 512.0005 512" width="512pt" xmlns="http://www.w3.org/2000/svg"><path d="m510.757812 245.507812c1.65625 3.363282 1.652344 7.292969-.003906 10.65625-49.609375 100.738282-145.105468 168.929688-254.753906 168.929688s-205.144531-68.191406-254.753906-168.929688c-1.65625-3.363281-1.65625-7.292968 0-10.65625 49.589844-100.742187 145.089844-168.953124 254.753906-168.953124s205.164062 68.210937 254.757812 168.953124zm0 0" fill="#d6f1f2"/><path d="m510.757812 256.160156c-49.613281 100.738282-145.113281 168.9375-254.757812 168.9375s-205.144531-68.199218-254.757812-168.9375c-1.65625-3.359375-1.65625-7.289062 0-10.65625 2.535156-5.15625 5.203124-10.242187 7.988281-15.21875 51.433593 92.335938 142.734375 153.734375 246.769531 153.734375 104.039062 0 195.335938-61.398437 246.769531-153.734375 2.785157 4.976563 5.453125 10.0625 7.988281 15.21875 1.65625 3.367188 1.65625 7.296875 0 10.65625zm0 0" fill="#a9d3d8"/><path d="m24.015625 410.332031c-4.265625 0-7.722656-3.457031-7.722656-7.726562v-61.691407c0-4.269531 3.457031-7.726562 7.722656-7.726562h100.738281c4.265625 0 7.722656 3.457031 7.722656 7.726562 0 4.265626-3.457031 7.726563-7.722656 7.726563h-93.011718v53.964844c0 4.269531-3.457032 7.726562-7.726563 7.726562zm0 0" fill="#1475cc"/><path d="m69.34375 473.648438h-45.328125c-4.265625 0-7.722656-3.460938-7.722656-7.726563 0-4.269531 3.457031-7.726563 7.722656-7.726563h45.328125c4.269531 0 7.726562 3.457032 7.726562 7.726563 0 4.265625-3.457031 7.726563-7.726562 7.726563zm0 0" fill="#00d2f9"/><path d="m69.34375 500.011719h-45.328125c-4.265625 0-7.722656-3.457031-7.722656-7.726563 0-4.265625 3.457031-7.726562 7.722656-7.726562h45.328125c4.269531 0 7.726562 3.460937 7.726562 7.726562 0 4.269532-3.457031 7.726563-7.726562 7.726563zm0 0" fill="#00d2f9"/><path d="m24.015625 445.414062c-4.265625 0-7.722656-3.460937-7.722656-7.726562v-.128906c0-4.265625 3.457031-7.726563 7.722656-7.726563 4.269531 0 7.726563 3.460938 7.726563 7.726563v.128906c0 4.265625-3.457032 7.726562-7.726563 7.726562zm0 0" fill="#1475cc"/><path d="m471.386719 384.136719c0 35.394531-28.691407 64.085937-64.085938 64.085937s-64.085937-28.691406-64.085937-64.085937 28.691406-64.085938 64.085937-64.085938 64.085938 28.691407 64.085938 64.085938zm0 0" fill="#00d2f9"/><path d="m471.382812 384.140625c0 35.386719-28.691406 64.078125-64.085937 64.078125-4.472656 0-8.839844-.464844-13.050781-1.328125 29.132812-6.027344 51.03125-31.835937 51.03125-62.75 0-30.925781-21.898438-56.730469-51.03125-62.757813 4.210937-.867187 8.578125-1.328124 13.050781-1.328124 35.394531 0 64.085937 28.691406 64.085937 64.085937zm0 0" fill="#00abef"/><path d="m426.78125 378.4375-24.726562-14.699219c-4.417969-2.628906-10.015626.554688-10.015626 5.695313v29.40625c0 5.140625 5.597657 8.324218 10.015626 5.695312l24.726562-14.699218c4.324219-2.570313 4.324219-8.828126 0-11.398438zm0 0" fill="#d6f1f2"/><path d="m190.921875 125.605469c0 32.683593-26.496094 59.175781-59.175781 59.175781-32.683594 0-59.175782-26.492188-59.175782-59.175781 0-32.679688 26.492188-59.175781 59.175782-59.175781 32.679687 0 59.175781 26.496093 59.175781 59.175781zm0 0" fill="#ffb54e"/><path d="m190.917969 125.605469c0 32.6875-26.496094 59.183593-59.171875 59.183593-4.152344 0-8.203125-.421874-12.117188-1.246093 26.855469-5.597657 47.046875-29.402344 47.046875-57.9375 0-28.527344-20.191406-52.335938-47.046875-57.929688 3.914063-.824219 7.964844-1.246093 12.117188-1.246093 32.675781 0 59.171875 26.496093 59.171875 59.175781zm0 0" fill="#ff9a1b"/><path d="m146.832031 117.878906h-7.363281v-7.359375c0-4.265625-3.457031-7.726562-7.722656-7.726562-4.269532 0-7.726563 3.460937-7.726563 7.726562v7.359375h-7.359375c-4.269531 0-7.726562 3.460938-7.726562 7.726563 0 4.269531 3.457031 7.726562 7.726562 7.726562h7.359375v7.359375c0 4.269532 3.457031 7.726563 7.726563 7.726563 4.265625 0 7.722656-3.457031 7.722656-7.726563v-7.359375h7.363281c4.265625 0 7.722657-3.457031 7.722657-7.726562.003906-4.265625-3.457032-7.726563-7.722657-7.726563zm0 0" fill="#ff5633"/><path d="m117.191406 57.421875c0 24.644531-19.976562 44.625-44.625 44.625-24.644531 0-44.621094-19.980469-44.621094-44.625s19.976563-44.625 44.621094-44.625c24.648438 0 44.625 19.980469 44.625 44.625zm0 0" fill="#ff7d4d"/><path d="m117.191406 57.421875c0 24.648437-19.980468 44.628906-44.625 44.628906-3.128906 0-6.183594-.320312-9.132812-.941406 20.25-4.21875 35.476562-22.171875 35.476562-43.6875 0-21.511719-15.226562-39.464844-35.476562-43.683594 2.949218-.621093 6.003906-.941406 9.132812-.941406 24.644532 0 44.625 19.980469 44.625 44.625zm0 0" fill="#ff5633"/><path d="m83.945312 65.148438h-22.753906c-4.265625 0-7.726562-3.460938-7.726562-7.726563s3.460937-7.726563 7.726562-7.726563h22.753906c4.265626 0 7.726563 3.460938 7.726563 7.726563s-3.460937 7.726563-7.726563 7.726563zm0 0" fill="#d6f1f2"/><path d="m470.941406 238.011719c-4.265625 0-7.722656-3.457031-7.722656-7.726563v-214.832031h-41.605469c-4.269531 0-7.726562-3.457031-7.726562-7.726563 0-4.265624 3.457031-7.726562 7.726562-7.726562h49.328125c4.269532 0 7.726563 3.460938 7.726563 7.726562v222.558594c0 4.269532-3.457031 7.726563-7.726563 7.726563zm0 0" fill="#1475cc"/><path d="m425.664062 53.085938h-45.328124c-4.265626 0-7.726563-3.457032-7.726563-7.726563 0-4.265625 3.460937-7.722656 7.726563-7.722656h45.328124c4.269532 0 7.726563 3.457031 7.726563 7.722656 0 4.269531-3.457031 7.726563-7.726563 7.726563zm0 0" fill="#00d2f9"/><path d="m425.664062 79.453125h-45.328124c-4.265626 0-7.726563-3.460937-7.726563-7.726563 0-4.265624 3.460937-7.726562 7.726563-7.726562h45.328124c4.269532 0 7.726563 3.460938 7.726563 7.726562 0 4.265626-3.457031 7.726563-7.726563 7.726563zm0 0" fill="#00d2f9"/><path d="m380.335938 15.582031c-4.265626 0-7.726563-3.460937-7.726563-7.726562v-.128907c0-4.265624 3.460937-7.726562 7.726563-7.726562 4.269531 0 7.726562 3.460938 7.726562 7.726562v.128907c0 4.265625-3.457031 7.726562-7.726562 7.726562zm0 0" fill="#1475cc"/><path d="m323.277344 250.828125c0 37.152344-30.121094 67.273437-67.277344 67.273437s-67.277344-30.121093-67.277344-67.273437c0-37.15625 30.121094-67.277344 67.277344-67.277344s67.277344 30.121094 67.277344 67.277344zm0 0" fill="#1475cc"/><path d="m264.859375 249.695312c-1.976563 0-3.957031-.757812-5.464844-2.265624-3.015625-3.015626-3.015625-7.90625 0-10.925782l38.585938-38.585937c3.019531-3.019531 7.910156-3.019531 10.929687 0 3.015625 3.015625 3.015625 7.90625 0 10.925781l-38.589844 38.585938c-1.507812 1.507812-3.484374 2.265624-5.460937 2.265624zm0 0" fill="#00d2f9"/><path d="m283.707031 250.828125c0 15.300781-12.40625 27.707031-27.707031 27.707031s-27.707031-12.40625-27.707031-27.707031c0-15.304687 12.40625-27.707031 27.707031-27.707031s27.707031 12.402344 27.707031 27.707031zm0 0" fill="#ffb54e"/><path d="m283.703125 250.832031c0 15.296875-12.402344 27.699219-27.703125 27.699219-2.679688 0-5.273438-.378906-7.726562-1.101562 11.539062-3.335938 19.976562-13.988282 19.976562-26.597657 0-12.621093-8.4375-23.273437-19.976562-26.609375 2.453124-.722656 5.046874-1.101562 7.726562-1.101562 15.296875-.003906 27.703125 12.402344 27.703125 27.710937zm0 0" fill="#ff9a1b"/><g fill="#1475cc"><path d="m372.75 258.550781h-20.636719c-4.269531 0-7.726562-3.457031-7.726562-7.722656 0-4.269531 3.457031-7.726563 7.726562-7.726563h20.636719c4.269531 0 7.726562 3.457032 7.726562 7.726563 0 4.265625-3.457031 7.722656-7.726562 7.722656zm0 0"/><path d="m159.886719 258.550781h-20.636719c-4.269531 0-7.726562-3.457031-7.726562-7.722656 0-4.269531 3.457031-7.726563 7.726562-7.726563h20.636719c4.265625 0 7.726562 3.457032 7.726562 7.726563 0 4.265625-3.460937 7.722656-7.726562 7.722656zm0 0"/><path d="m256 162.4375c-4.265625 0-7.726562-3.457031-7.726562-7.722656v-20.640625c0-4.265625 3.460937-7.726563 7.726562-7.726563 4.269531 0 7.726562 3.460938 7.726562 7.726563v20.640625c0 4.265625-3.457031 7.722656-7.726562 7.722656zm0 0"/><path d="m256 375.304688c-4.265625 0-7.726562-3.460938-7.726562-7.726563v-20.640625c0-4.265625 3.460937-7.722656 7.726562-7.722656 4.269531 0 7.726562 3.457031 7.726562 7.722656v20.640625c0 4.265625-3.457031 7.726563-7.726562 7.726563zm0 0"/></g></svg>