<svg id="Capa_1" enable-background="new 0 0 512 512" height="512" viewBox="0 0 512 512" width="512" xmlns="http://www.w3.org/2000/svg"><g><g><g><g><path d="m452.994 0h-83.447c-20.309 0-36.773 16.464-36.773 36.773v44.177c0 17.401 12.086 31.978 28.321 35.796.919.216 1.785.548 2.588.977l5.071.777h32.517s9.25-.777 9.25-.777h42.473c11.493 0 20.81-9.317 20.81-20.81v-76.103c0-11.493-9.317-20.81-20.81-20.81z" fill="#d5b0ec"/><g fill="#c995e4"><path d="m369.518 127.55v32.306c0 3.243 4.149 4.592 6.056 1.969l28.736-39.512c2.097-2.884 5.447-4.589 9.012-4.59h.002-49.641c3.54 1.888 5.835 5.665 5.835 9.827z"/><path d="m472.653 0h-25.909c11.493 0 20.81 9.317 20.81 20.81v76.102c0 11.493-9.317 20.81-20.81 20.81h25.909c20.309 0 36.773-16.464 36.773-36.773v-44.176c0-20.309-16.464-36.773-36.773-36.773z"/></g><g><g><g><g><path d="m161.072 371.791 30.894.002 23.569-40.403c-4.402-.668-8.409-1.231-11.796-1.683-6.494-.866-11.356-6.543-11.356-13.273v-76.758h-61.336v61.217c0 6.73-4.862 12.407-11.355 13.273z" fill="#ffece3"/></g><g><path d="m233.38 314.166.005-.005c.003 0 .005 0 .008.001.008.001.015.003.023.004-6.494-.866-11.356-6.543-11.356-13.273v-61.217h-41.87v85.425c0 6.73 4.862 12.407 11.356 13.273 4.086.545 9.066 1.25 14.568 2.109l7.487-1.052 20.857-20.13z" fill="#ffddce"/></g><g><path d="m280.407 347.284c-16.349-7.481-44.124-12.871-64.678-16.092l-32.763 31.601c-3.598 3.47-9.297 3.469-12.894-.002l-50.38-48.625-1.722 1.785-27.747 4.137-2.361-.852c-17.077 3.216-35.582 7.633-47.696 13.176-22.862 10.461-37.591 33.771-37.591 59.49v104.226c0 8.766 6.914 15.872 15.444 15.872h291.814c4.51 0 8.166-3.656 8.166-8.166v-97.06c-.001-25.719-14.73-49.029-37.592-59.49z" fill="#fc8086"/></g><g><path d="m69.011 156.724.018 28.292h215.076l-.011-28.308c-.009-59.393-48.159-107.536-107.552-107.536h-.007c-59.394.001-107.539 48.158-107.524 107.552z" fill="#fbbe66"/><path d="m284.386 205.136h-65.029v-59.418h73.749v50.698c0 4.816-3.904 8.72-8.72 8.72z" fill="#8db9c2"/><path d="m127.172 205.136h-58.441c-4.816 0-8.72-3.904-8.72-8.72v-50.698h67.161z" fill="#8db9c2"/><path d="m223.16 215.821.094-118.983c-8.144-3.741-18.081-2.038-24.771 4.638-10.75 10.728-25.586 17.362-41.974 17.362h-33.081c-9.395 0-24.849 9.222-24.849 26.88l.116 66.339c0 44.379 45.955 67.748 71.605 71.558 24.951-10.291 52.86-32.656 52.86-67.794z" fill="#ffece3"/><path d="m228.624 100.372c-4.6-4.14-10.475-5.872-16.211-5.379l-.093 117.065c0 36.702-31.43 59.031-56.813 67.815 7.993 2.766 15.388 4.192 21.011 4.297 23.481-.437 77.824-23.854 77.824-72.112l.116-66.339c.044-23.074-9.937-31.042-25.834-45.347z" fill="#ffddce"/></g><g><g><g><g><path d="m69.018 205.136-.007-48.412c-.003-29.751 11.994-57.659 33.702-78.197 19.211-18.176 44.624-28.649 71.062-29.32 60.56-1.535 110.317 47.281 110.32 107.5l.004 48.428c14.285 0 25.866-11.581 25.864-25.866l-.002-23.098c-.003-73.558-59.85-133.401-133.409-133.401-35.636 0-69.139 13.879-94.338 39.079-25.198 25.201-39.073 58.706-39.07 94.342l.003 23.078c.003 14.287 11.584 25.867 25.871 25.867z" fill="#a8d0d5"/></g></g></g></g><g fill="#fb636f"><g><path d="m134.325 375.235 42.193-6.223-56.826-54.846c-8.07 1.076-19.61 2.772-31.829 5.07l24.728 45.182c4.267 7.798 12.939 12.114 21.734 10.817z"/><path d="m312.942 332.412c-20.726-9.484-59.822-15.611-79.276-18.212-.002 0-.005-.001-.007-.001-.064-.009-.127-.017-.19-.026-.017-.002-.035-.005-.052-.007-.005-.001-.011-.002-.016-.003-.003-.001-.006-.001-.009-.002-.002 0-.004-.001-.006-.001l-.005.005-20.992 20.261-35.834 34.585 42.193 6.223c8.795 1.297 17.467-3.019 21.735-10.817l8.385-15.321c8.351 2.212 16.08 4.72 22.204 7.523 22.862 10.461 37.591 33.771 37.591 59.49v95.891h26.427c8.529 0 15.444-7.106 15.444-15.872v-104.226c0-25.719-14.73-49.029-37.592-59.49z"/></g><path d="m170.072 362.791-1.244-1.201v150.41h15.452v-150.474l-1.314 1.267c-3.598 3.47-9.297 3.469-12.894-.002z"/></g></g><g fill="#fb636f"><path d="m63.668 512v-42.627c0-4.267-3.459-7.726-7.726-7.726s-7.726 3.459-7.726 7.726v42.627z"/><path d="m304.893 512v-42.627c0-4.267-3.459-7.726-7.726-7.726s-7.726 3.459-7.726 7.726v42.627z"/></g></g><path d="m266.924 448.017h-44.514c-2.674 0-4.842-2.168-4.842-4.842v-18.148c0-2.674 2.168-4.842 4.842-4.842h44.514c2.674 0 4.842 2.168 4.842 4.842v18.148c0 2.674-2.168 4.842-4.842 4.842z" fill="#fcdd2e"/></g></g><g><g><path d="m468.592 49.327h-92.112c-4.267 0-7.726-3.459-7.726-7.726s3.459-7.726 7.726-7.726h92.112c4.267 0 7.726 3.459 7.726 7.726s-3.459 7.726-7.726 7.726z" fill="#eff3f5"/></g><g><path d="m468.592 83.727h-92.112c-4.267 0-7.726-3.459-7.726-7.726s3.459-7.726 7.726-7.726h92.112c4.267 0 7.726 3.459 7.726 7.726s-3.459 7.726-7.726 7.726z" fill="#eff3f5"/></g></g></g></g><path d="m126.347 234.071h-37.887c-3.574 0-6.482-2.908-6.482-6.482v-22.453h-12.967c-.685 0-1.362-.035-2.033-.088v22.541c0 11.845 9.637 21.482 21.482 21.482h37.887c4.142 0 7.5-3.358 7.5-7.5s-3.358-7.5-7.5-7.5z" fill="#eff3f5"/><path d="m156.431 255.822h-29.33c-7.589 0-13.742-6.152-13.742-13.742 0-7.589 6.152-13.742 13.742-13.742h29.33c7.589 0 13.742 6.152 13.742 13.742 0 7.589-6.152 13.742-13.742 13.742z" fill="#7ba0b0"/></g></svg>