<svg id="Layer_3" enable-background="new 0 0 64 64" height="512" viewBox="0 0 64 64" width="512" xmlns="http://www.w3.org/2000/svg"><g><path d="m6 54v-34c0-1.105.895-2 2-2h48c1.105 0 2 .895 2 2v34" fill="#a8b0bc"/><path d="m48.254 36.753c0-7.037-2.328-13.53-6.253-18.753h-34.001c-1.105 0-2 .895-2 2v34h37.061c3.278-4.943 5.193-10.87 5.193-17.247z" fill="#c1c8d1"/><path d="m54 51h-44c-.552 0-1-.448-1-1v-28c0-.552.448-1 1-1h44c.552 0 1 .448 1 1v28c0 .552-.448 1-1 1z" fill="#c7e2fc"/><path d="m9 22v28c0 .552.448 1 1 1h34.814c2.194-4.273 3.44-9.113 3.44-14.247 0-5.747-1.558-11.127-4.266-15.753h-33.988c-.552 0-1 .448-1 1z" fill="#ebf7fe"/><path d="m9 44 5-5 4 4 5-5 11 8 14-10 7 6v8c0 .552-.448 1-1 1h-44c-.552 0-1-.448-1-1z" fill="#f2c351"/><path d="m48.235 36.201-.235-.201-14 10-11-8-5 5-4-4-5 5v6c0 .552.448 1 1 1h34.814c2.194-4.273 3.44-9.113 3.44-14.247 0-.185-.016-.367-.019-.552z" fill="#f7d881"/><path d="m26 55c0 .552.448 1 1 1h10c.552 0 1-.448 1-1 0-.552.448-1 1-1h22c.552 0 1 .448 1 1v3c0 2.209-1.791 4-4 4h-52c-2.209 0-4-1.791-4-4v-3c0-.552.448-1 1-1h22c.552 0 1 .448 1 1z" fill="#758190"/><path d="m39 54c-.552 0-1 .448-1 1s-.448 1-1 1h-10c-.552 0-1-.448-1-1s-.448-1-1-1h-22c-.552 0-1 .448-1 1v3c0 2.209 1.791 4 4 4h29.41c3-2.19 5.594-4.9 7.65-8z" fill="#8892a0"/><g><path d="m5 57h6v2h-6z" fill="#a8b0bc"/></g><g><path d="m53 57h6v2h-6z" fill="#a8b0bc"/></g><path d="m43 15v-4h-3.262c-.189-.732-.477-1.422-.852-2.058l2.306-2.306-2.828-2.828-2.306 2.306c-.636-.375-1.326-.663-2.058-.852v-3.262h-4v3.262c-.732.189-1.422.477-2.058.852l-2.306-2.306-2.828 2.828 2.306 2.306c-.375.635-.663 1.326-.852 2.058h-3.262v4h3.262c.189.732.477 1.422.852 2.058l-2.306 2.306 2.828 2.828 2.306-2.306c.635.375 1.326.663 2.058.852v3.262h4v-3.262c.732-.189 1.422-.477 2.058-.852l2.306 2.306 2.828-2.828-2.306-2.306c.375-.635.663-1.325.852-2.058z" fill="#999"/><circle cx="32" cy="13" fill="#e6e6e6" r="4"/><g fill="#e47c6e"><path d="m11.02 11.605-1.313-1.313-1.415 1.415 3 3c.195.195.451.292.708.292.256 0 .512-.097.707-.292l3-3-1.415-1.415-1.27 1.27c.23-4.759 4.163-8.562 8.978-8.562v-2c-5.933 0-10.77 4.724-10.98 10.605z"/><path d="m54.292 10.292-1.313 1.313c-.21-5.882-5.048-10.605-10.979-10.605v2c4.815 0 8.747 3.804 8.977 8.563l-1.27-1.27-1.415 1.415 3 3c.195.194.451.292.707.292s.512-.097.708-.292l3-3z"/></g><path d="m32 28-4 5h2v7h4v-7h2z" fill="#e47c6e"/><g><path d="m13 43h2v8h-2z" fill="#e39854"/></g><g><path d="m21 42.999h2v8h-2z" fill="#e39854"/></g><g><path d="m33 48h2v3h-2z" fill="#e39854"/></g><g><path d="m37 47h2v4h-2z" fill="#e39854"/></g><g><path d="m41 44h2v7h-2z" fill="#e39854"/></g><g><path d="m29 48h2v3h-2z" fill="#e39854"/></g><g><path d="m49 41h2v10h-2z" fill="#c16b3f"/></g><g><path d="m45 40.999h2v10h-2z" fill="#e39854"/></g><g><path d="m17 46h2v5h-2z" fill="#e39854"/></g><g><path d="m25 43.999h2v7h-2z" fill="#e39854"/></g></g></svg>