<?xml version="1.0" encoding="utf-8"?>
<!-- Generator: Adobe Illustrator 19.2.0, SVG Export Plug-In . SVG Version: 6.00 Build 0)  -->
<svg version="1.1" id="Layer_1" xmlns="http://www.w3.org/2000/svg" xmlns:xlink="http://www.w3.org/1999/xlink" x="0px" y="0px"
	 viewBox="0 0 512 512" style="enable-background:new 0 0 512 512;" xml:space="preserve">
<style type="text/css">
	.st0{fill:url(#SVGID_1_);}
	.st1{fill:url(#SVGID_2_);}
	.st2{fill:url(#SVGID_3_);}
	.st3{fill:url(#SVGID_4_);}
	.st4{fill:url(#SVGID_5_);}
	.st5{fill:url(#SVGID_6_);}
	.st6{fill:url(#SVGID_7_);}
	.st7{fill:url(#SVGID_8_);}
	.st8{fill:url(#SVGID_9_);}
	.st9{fill:url(#SVGID_10_);}
</style>
<g>
	<g>
		<linearGradient id="SVGID_1_" gradientUnits="userSpaceOnUse" x1="0" y1="204.6685" x2="512" y2="204.6685">
			<stop  offset="0" style="stop-color:#5B57A5"/>
			<stop  offset="0.5" style="stop-color:#2E3092"/>
			<stop  offset="1" style="stop-color:#474374"/>
		</linearGradient>
		<path class="st0" d="M504,97.3c4.4,0,8-3.6,8-8V46.5c0-23.3-18.9-42.2-42.2-42.2H196.1c-23.3,0-42.2,18.9-42.2,42.2v17.6H42.2
			C18.9,64.1,0,83.1,0,106.4v171c0,23.3,18.9,42.2,42.2,42.2h17.6v77.5c0,6.6,8,10.4,13.1,6.2l100.4-83.7h142.5
			c21.4,0,39.2-16.1,41.9-36.8l72.7,60.6c5.1,4.3,13.1,0.5,13.1-6.2v-77.5h26.2c23.3,0,42.2-18.9,42.2-42.2v-94.1c0-4.4-3.6-8-8-8
			c-4.4,0-8,3.6-8,8v94.1c0,14.4-11.7,26.2-26.2,26.2h-34.2c-4.4,0-8,3.6-8,8v68.4l-68.9-57.5c-0.2-0.1-0.4-0.3-0.5-0.4V217h43.3
			c4.4,0,8-3.6,8-8s-3.6-8-8-8h-43.3v-52.4h9.1c4.4,0,8-3.6,8-8s-3.6-8-8-8h-9.1v-26.2c0-23.3-18.9-42.2-42.2-42.2H170V46.5
			c0-14.4,11.7-26.2,26.2-26.2h273.6c14.4,0,26.2,11.7,26.2,26.2v42.8C496,93.7,499.6,97.3,504,97.3z M315.9,80.2
			c14.4,0,26.2,11.7,26.2,26.2v171c0,14.4-11.7,26.2-26.2,26.2H170.5c-1.9,0-3.7,0.7-5.1,1.9L75.9,380v-68.4c0-4.4-3.6-8-8-8H42.2
			c-14.4,0-26.2-11.7-26.2-26.2v-171c0-14.4,11.7-26.2,26.2-26.2H315.9z"/>
	</g>
</g>
<g>
	<g>
		<linearGradient id="SVGID_2_" gradientUnits="userSpaceOnUse" x1="350.597" y1="72.15" x2="443.591" y2="72.15">
			<stop  offset="0" style="stop-color:#5B57A5"/>
			<stop  offset="0.5" style="stop-color:#2E3092"/>
			<stop  offset="1" style="stop-color:#474374"/>
		</linearGradient>
		<path class="st1" d="M435.6,64.1h-77c-4.4,0-8,3.6-8,8s3.6,8,8,8h77c4.4,0,8-3.6,8-8S440,64.1,435.6,64.1z"/>
	</g>
</g>
<g>
	<g>
		<linearGradient id="SVGID_3_" gradientUnits="userSpaceOnUse" x1="384.801" y1="140.559" x2="443.591" y2="140.559">
			<stop  offset="0" style="stop-color:#5B57A5"/>
			<stop  offset="0.5" style="stop-color:#2E3092"/>
			<stop  offset="1" style="stop-color:#474374"/>
		</linearGradient>
		<path class="st2" d="M435.6,132.5h-42.8c-4.4,0-8,3.6-8,8c0,4.4,3.6,8,8,8h42.8c4.4,0,8-3.6,8-8S440,132.5,435.6,132.5z"/>
	</g>
</g>
<g>
	<g>
		<linearGradient id="SVGID_4_" gradientUnits="userSpaceOnUse" x1="76.96" y1="191.865" x2="127.198" y2="191.865">
			<stop  offset="0" style="stop-color:#5B57A5"/>
			<stop  offset="0.5" style="stop-color:#2E3092"/>
			<stop  offset="1" style="stop-color:#474374"/>
		</linearGradient>
		<path class="st3" d="M102.1,166.7C88.2,166.7,77,178,77,191.9S88.2,217,102.1,217s25.1-11.3,25.1-25.1
			C127.2,178,115.9,166.7,102.1,166.7z M102.1,201c-5,0-9.1-4.1-9.1-9.1s4.1-9.1,9.1-9.1s9.1,4.1,9.1,9.1S107.1,201,102.1,201z"/>
	</g>
</g>
<g>
	<g>
		<linearGradient id="SVGID_5_" gradientUnits="userSpaceOnUse" x1="153.921" y1="191.865" x2="204.159" y2="191.865">
			<stop  offset="0" style="stop-color:#5B57A5"/>
			<stop  offset="0.5" style="stop-color:#2E3092"/>
			<stop  offset="1" style="stop-color:#474374"/>
		</linearGradient>
		<path class="st4" d="M179,166.7c-13.9,0-25.1,11.3-25.1,25.1S165.2,217,179,217s25.1-11.3,25.1-25.1
			C204.2,178,192.9,166.7,179,166.7z M179,201c-5,0-9.1-4.1-9.1-9.1s4.1-9.1,9.1-9.1s9.1,4.1,9.1,9.1C188.1,196.9,184.1,201,179,201
			z"/>
	</g>
</g>
<g>
	<g>
		<linearGradient id="SVGID_6_" gradientUnits="userSpaceOnUse" x1="230.881" y1="191.865" x2="281.119" y2="191.865">
			<stop  offset="0" style="stop-color:#5B57A5"/>
			<stop  offset="0.5" style="stop-color:#2E3092"/>
			<stop  offset="1" style="stop-color:#474374"/>
		</linearGradient>
		<path class="st5" d="M256,166.7c-13.9,0-25.1,11.3-25.1,25.1S242.1,217,256,217c13.9,0,25.1-11.3,25.1-25.1
			C281.1,178,269.9,166.7,256,166.7z M256,201c-5,0-9.1-4.1-9.1-9.1s4.1-9.1,9.1-9.1c5,0,9.1,4.1,9.1,9.1S261,201,256,201z"/>
	</g>
</g>
<g>
	<g>
		<linearGradient id="SVGID_7_" gradientUnits="userSpaceOnUse" x1="102.614" y1="444.1265" x2="204.158" y2="444.1265">
			<stop  offset="0" style="stop-color:#5B57A5"/>
			<stop  offset="0.5" style="stop-color:#2E3092"/>
			<stop  offset="1" style="stop-color:#474374"/>
		</linearGradient>
		<path class="st6" d="M183.3,466h-39v-64.7c0-11.5-9.4-20.8-20.8-20.8s-20.8,9.4-20.8,20.8v85.5c0,11.5,9.4,20.8,20.8,20.8h59.9
			c11.5,0,20.8-9.4,20.8-20.8C204.2,475.4,194.8,466,183.3,466z M183.3,491.7h-59.9c-2.7,0-4.8-2.2-4.8-4.8v-85.5
			c0-2.7,2.2-4.8,4.8-4.8s4.8,2.2,4.8,4.8v72.7c0,4.4,3.6,8,8,8h47c2.7,0,4.8,2.2,4.8,4.8S186,491.7,183.3,491.7z"/>
	</g>
</g>
<g>
	<g>
		<linearGradient id="SVGID_8_" gradientUnits="userSpaceOnUse" x1="209.504" y1="444.1255" x2="251.19" y2="444.1255">
			<stop  offset="0" style="stop-color:#5B57A5"/>
			<stop  offset="0.5" style="stop-color:#2E3092"/>
			<stop  offset="1" style="stop-color:#474374"/>
		</linearGradient>
		<path class="st7" d="M230.3,380.5c-11.5,0-20.8,9.4-20.8,20.8v85.5c0,11.5,9.4,20.8,20.8,20.8s20.8-9.4,20.8-20.8v-85.5
			C251.2,389.9,241.8,380.5,230.3,380.5z M235.2,486.9c0,2.7-2.2,4.8-4.8,4.8s-4.8-2.2-4.8-4.8v-85.5c0-2.7,2.2-4.8,4.8-4.8
			s4.8,2.2,4.8,4.8V486.9z"/>
	</g>
</g>
<g>
	<g>
		<linearGradient id="SVGID_9_" gradientUnits="userSpaceOnUse" x1="260.8447" y1="444.1259" x2="370.8715" y2="444.1259">
			<stop  offset="0" style="stop-color:#5B57A5"/>
			<stop  offset="0.5" style="stop-color:#2E3092"/>
			<stop  offset="1" style="stop-color:#474374"/>
		</linearGradient>
		<path class="st8" d="M357.8,382c-10.7-4.3-22.8,0.9-27.1,11.6l-14.9,37.1L301,393.6c-4.3-10.7-16.4-15.9-27.1-11.6
			c-10.5,4.2-15.8,16.5-11.6,27.1l34.2,85.5c3.2,8,10.8,13.1,19.4,13.1s16.2-5.1,19.4-13.1l34.2-85.5
			C373.6,398.5,368.3,386.2,357.8,382z M354.5,403.2l-34.2,85.5c-1.6,3.9-7.4,3.9-8.9,0l-34.2-85.5c-1-2.6,0.4-5.5,3-6.4
			c2.4-0.7,5,0.5,5.9,2.8l22.3,55.7c2.6,6.6,12.3,6.6,14.9,0l22.3-55.7c0.9-2.2,3.3-3.4,5.6-2.9C354,397.3,355.6,400.5,354.5,403.2z
			"/>
	</g>
</g>
<g>
	<g>
		<linearGradient id="SVGID_10_" gradientUnits="userSpaceOnUse" x1="376.251" y1="444.1275" x2="469.244" y2="444.1275">
			<stop  offset="0" style="stop-color:#5B57A5"/>
			<stop  offset="0.5" style="stop-color:#2E3092"/>
			<stop  offset="1" style="stop-color:#474374"/>
		</linearGradient>
		<path class="st9" d="M448.4,466h-30.5V465h13.4c11.5,0,20.8-9.4,20.8-20.8s-9.4-20.8-20.8-20.8h-13.4v-1.1h30.5
			c11.5,0,20.8-9.4,20.8-20.8s-9.4-20.8-20.8-20.8h-51.3c-11.5,0-20.8,9.4-20.8,20.8v85.5c0,11.5,9.4,20.8,20.8,20.8h51.3
			c11.5,0,20.8-9.4,20.8-20.8C469.2,475.4,459.9,466,448.4,466z M448.4,491.7h-51.3c-2.7,0-4.8-2.2-4.8-4.8v-85.5
			c0-2.7,2.2-4.8,4.8-4.8h51.3c2.7,0,4.8,2.2,4.8,4.8s-2.2,4.8-4.8,4.8h-38.5c-4.4,0-8,3.6-8,8v17.1c0,4.4,3.6,8,8,8h21.4
			c2.7,0,4.8,2.2,4.8,4.8s-2.2,4.8-4.8,4.8h-21.4c-4.4,0-8,3.6-8,8v17.1c0,4.4,3.6,8,8,8h38.5c2.7,0,4.8,2.2,4.8,4.8
			S451.1,491.7,448.4,491.7z"/>
	</g>
</g>
</svg>
