<?xml version="1.0" encoding="utf-8"?>
<!-- Generator: Adobe Illustrator 19.2.0, SVG Export Plug-In . SVG Version: 6.00 Build 0)  -->
<svg version="1.1" id="Capa_1" xmlns="http://www.w3.org/2000/svg" xmlns:xlink="http://www.w3.org/1999/xlink" x="0px" y="0px"
	 viewBox="0 0 512 512" style="enable-background:new 0 0 512 512;" xml:space="preserve">
<style type="text/css">
	.st0{fill:url(#SVGID_1_);}
	.st1{fill:url(#SVGID_2_);}
	.st2{fill:url(#SVGID_3_);}
	.st3{fill:url(#SVGID_4_);}
	.st4{fill:url(#SVGID_5_);}
	.st5{fill:url(#SVGID_6_);}
	.st6{fill:url(#SVGID_7_);}
	.st7{fill:url(#SVGID_8_);}
</style>
<g>
	<g>
		<linearGradient id="SVGID_1_" gradientUnits="userSpaceOnUse" x1="219" y1="363.98" x2="239" y2="363.98">
			<stop  offset="0" style="stop-color:#5B57A5"/>
			<stop  offset="0.5" style="stop-color:#2E3092"/>
			<stop  offset="1" style="stop-color:#474374"/>
		</linearGradient>
		<path class="st0" d="M236.1,356.9c-1.9-1.9-4.4-2.9-7.1-2.9s-5.2,1.1-7.1,2.9c-1.9,1.9-2.9,4.4-2.9,7.1c0,2.6,1.1,5.2,2.9,7.1
			c1.9,1.9,4.4,2.9,7.1,2.9s5.2-1.1,7.1-2.9c1.9-1.9,2.9-4.4,2.9-7.1S237.9,358.8,236.1,356.9z"/>
	</g>
</g>
<g>
	<g>
		<linearGradient id="SVGID_2_" gradientUnits="userSpaceOnUse" x1="0" y1="282.99" x2="458.001" y2="282.99">
			<stop  offset="0" style="stop-color:#5B57A5"/>
			<stop  offset="0.5" style="stop-color:#2E3092"/>
			<stop  offset="1" style="stop-color:#474374"/>
		</linearGradient>
		<path class="st1" d="M448,268c-5.5,0-10,4.5-10,10v44H266v-24.7c0-38-28.6-69.5-65.4-74c7.3-9,11.6-20.4,11.6-32.8v-70.3
			c0-5.5-4.5-10-10-10h-52.3c-23.2,0-42.2,18.9-42.2,42.2v38.2c0,12.4,4.4,23.9,11.6,32.8c-36.8,4.6-65.4,36-65.4,74V322H20V81.7
			c0-4.3,3.5-7.8,7.8-7.8h207.9c5.5,0,10-4.5,10-10s-4.5-10-10-10H27.8C12.5,54,0,66.4,0,81.7v296.5C0,393.5,12.5,406,27.8,406H180
			v46.2c-25.2,2.6-45,23.9-45,49.8c0,5.5,4.5,10,10,10h168c5.5,0,10-4.5,10-10c0-25.9-19.8-47.3-45-49.8V406h152.2
			c15.3,0,27.8-12.5,27.8-27.8V278C458,272.5,453.5,268,448,268z M127.8,152.2c0-12.2,9.9-22.2,22.2-22.2h42.3v16
			c0,7.9-6.5,14.4-14.4,14.4h-50.1V152.2z M127.8,180.4h50.1c5.1,0,10-1.1,14.4-3.2v13.2h0c0,17.8-14.5,32.2-32.2,32.2
			s-32.2-14.5-32.2-32.2C127.8,190.4,127.8,180.4,127.8,180.4z M171.7,242.7L160,254.3l-11.7-11.7L171.7,242.7L171.7,242.7z
			 M74,297.3c0-27.4,20.3-50.2,46.6-54l32.3,32.3c2,2,4.5,2.9,7.1,2.9s5.1-1,7.1-2.9l32.3-32.3c26.3,3.9,46.6,26.6,46.6,54V322H74
			V297.3z M301.3,492H156.7c4.1-11.7,15.3-20.1,28.4-20.1h4.9h78h4.9C286,471.9,297.2,480.3,301.3,492z M200,451.9V406h58v45.9H200z
			 M438,378.2c0,4.3-3.5,7.8-7.8,7.8H27.8c-4.3,0-7.8-3.5-7.8-7.8V342h418V378.2z"/>
	</g>
</g>
<g>
	<g>
		<linearGradient id="SVGID_3_" gradientUnits="userSpaceOnUse" x1="438" y1="240.34" x2="458" y2="240.34">
			<stop  offset="0" style="stop-color:#5B57A5"/>
			<stop  offset="0.5" style="stop-color:#2E3092"/>
			<stop  offset="1" style="stop-color:#474374"/>
		</linearGradient>
		<path class="st2" d="M455.1,233.3c-1.9-1.9-4.4-2.9-7.1-2.9s-5.2,1.1-7.1,2.9c-1.9,1.9-2.9,4.4-2.9,7.1c0,2.6,1.1,5.2,2.9,7.1
			c1.9,1.9,4.4,2.9,7.1,2.9s5.2-1.1,7.1-2.9c1.9-1.9,2.9-4.4,2.9-7.1C458,237.7,456.9,235.1,455.1,233.3z"/>
	</g>
</g>
<g>
	<g>
		<linearGradient id="SVGID_4_" gradientUnits="userSpaceOnUse" x1="363" y1="57.01" x2="458" y2="57.01">
			<stop  offset="0" style="stop-color:#5B57A5"/>
			<stop  offset="0.5" style="stop-color:#2E3092"/>
			<stop  offset="1" style="stop-color:#474374"/>
		</linearGradient>
		<path class="st3" d="M448,47h-75c-5.5,0-10,4.5-10,10s4.5,10,10,10h75c5.5,0,10-4.5,10-10S453.5,47,448,47z"/>
	</g>
</g>
<g>
	<g>
		<linearGradient id="SVGID_5_" gradientUnits="userSpaceOnUse" x1="322" y1="57.01" x2="342" y2="57.01">
			<stop  offset="0" style="stop-color:#5B57A5"/>
			<stop  offset="0.5" style="stop-color:#2E3092"/>
			<stop  offset="1" style="stop-color:#474374"/>
		</linearGradient>
		<path class="st4" d="M339.1,49.9c-1.9-1.9-4.4-2.9-7.1-2.9s-5.2,1.1-7.1,2.9c-1.9,1.9-2.9,4.4-2.9,7.1s1.1,5.2,2.9,7.1
			c1.9,1.9,4.4,2.9,7.1,2.9s5.2-1.1,7.1-2.9c1.9-1.9,2.9-4.4,2.9-7.1S340.9,51.8,339.1,49.9z"/>
	</g>
</g>
<g>
	<g>
		<linearGradient id="SVGID_6_" gradientUnits="userSpaceOnUse" x1="322" y1="101.01" x2="458" y2="101.01">
			<stop  offset="0" style="stop-color:#5B57A5"/>
			<stop  offset="0.5" style="stop-color:#2E3092"/>
			<stop  offset="1" style="stop-color:#474374"/>
		</linearGradient>
		<path class="st5" d="M448,91H332c-5.5,0-10,4.5-10,10s4.5,10,10,10h116c5.5,0,10-4.5,10-10S453.5,91,448,91z"/>
	</g>
</g>
<g>
	<g>
		<linearGradient id="SVGID_7_" gradientUnits="userSpaceOnUse" x1="322" y1="145.01" x2="458" y2="145.01">
			<stop  offset="0" style="stop-color:#5B57A5"/>
			<stop  offset="0.5" style="stop-color:#2E3092"/>
			<stop  offset="1" style="stop-color:#474374"/>
		</linearGradient>
		<path class="st6" d="M448,135H332c-5.5,0-10,4.5-10,10s4.5,10,10,10h116c5.5,0,10-4.5,10-10S453.5,135,448,135z"/>
	</g>
</g>
<g>
	<g>
		<linearGradient id="SVGID_8_" gradientUnits="userSpaceOnUse" x1="268" y1="121.3435" x2="512" y2="121.3435">
			<stop  offset="0" style="stop-color:#5B57A5"/>
			<stop  offset="0.5" style="stop-color:#2E3092"/>
			<stop  offset="1" style="stop-color:#474374"/>
		</linearGradient>
		<path class="st7" d="M462,0H318c-27.6,0-50,22.4-50,50v107c0,25.7,19.4,46.9,44.3,49.7v26c0,4,2.4,7.7,6.2,9.2
			c1.2,0.5,2.5,0.8,3.8,0.8c2.6,0,5.2-1,7.1-2.9l32.7-32.7H462c27.6,0,50-22.4,50-50V50C512,22.4,489.6,0,462,0z M492,157
			c0,16.5-13.5,30-30,30H358c-2.7,0-5.2,1.1-7.1,2.9l-18.6,18.6V197c0-5.5-4.5-10-10-10H318c-16.5,0-30-13.5-30-30V50
			c0-16.5,13.5-30,30-30h144c16.5,0,30,13.5,30,30V157z"/>
	</g>
</g>
</svg>
