<?xml version="1.0" standalone="no"?>
<!DOCTYPE svg PUBLIC "-//W3C//DTD SVG 20010904//EN"
 "http://www.w3.org/TR/2001/REC-SVG-20010904/DTD/svg10.dtd">
<svg version="1.0" xmlns="http://www.w3.org/2000/svg"
 width="1664.000000pt" height="1664.000000pt" viewBox="0 0 1664.000000 1664.000000"
 preserveAspectRatio="xMidYMid meet">
<metadata>
Created by potrace 1.11, written by Peter Selinger 2001-2013
</metadata>
<g transform="translate(0.000000,1664.000000) scale(0.100000,-0.100000)"
fill="#000000" stroke="none">
<path d="M3437 11974 c-1 -1 -36 -5 -77 -8 -81 -6 -158 -14 -205 -21 -16 -3
-46 -7 -65 -9 -19 -2 -46 -7 -60 -10 -14 -2 -50 -10 -80 -15 -93 -18 -112 -23
-215 -50 -44 -12 -87 -23 -95 -25 -71 -18 -318 -105 -385 -136 -11 -5 -69 -31
-130 -59 -60 -27 -143 -68 -184 -90 -41 -23 -77 -41 -81 -41 -4 0 -13 -7 -20
-15 -7 -9 -15 -13 -18 -11 -2 3 -19 -6 -37 -19 -17 -14 -35 -25 -38 -25 -6 0
-73 -42 -93 -59 -6 -5 -25 -16 -42 -25 -18 -9 -32 -20 -32 -25 0 -4 -11 -13
-25 -19 -14 -7 -31 -17 -38 -22 -7 -6 -48 -38 -92 -71 -44 -33 -84 -66 -90
-73 -5 -6 -20 -19 -33 -28 -53 -36 -266 -241 -363 -349 -13 -15 -39 -43 -57
-63 -18 -20 -30 -36 -27 -36 3 0 -7 -12 -22 -27 -54 -54 -254 -336 -317 -448
-9 -16 -30 -52 -45 -80 -87 -153 -237 -479 -245 -530 -1 -5 -4 -14 -7 -20 -6
-9 -52 -142 -54 -155 -1 -3 -9 -32 -19 -65 -24 -79 -66 -252 -68 -282 -1 -13
-5 -23 -8 -23 -3 0 -6 -8 -6 -17 -1 -26 -14 -116 -19 -122 -2 -4 -6 -38 -10
-76 -4 -39 -9 -78 -11 -89 -19 -101 -26 -585 -11 -736 5 -41 10 -93 12 -115 2
-22 7 -56 11 -75 4 -19 8 -44 9 -55 6 -44 16 -103 25 -150 5 -27 11 -59 13
-70 2 -11 9 -40 16 -65 13 -44 16 -57 26 -102 8 -38 86 -281 100 -313 8 -16
11 -33 9 -37 -3 -4 0 -8 5 -8 6 0 11 -6 11 -13 0 -13 19 -59 41 -99 5 -10 9
-23 9 -29 0 -23 162 -334 235 -452 42 -67 82 -131 88 -141 17 -27 23 -36 52
-72 14 -18 25 -36 25 -42 0 -5 7 -12 15 -16 8 -3 15 -12 15 -20 0 -8 4 -16 8
-18 4 -1 23 -23 42 -48 19 -25 37 -47 40 -50 3 -3 30 -34 60 -70 110 -131 292
-312 410 -409 24 -19 48 -40 54 -46 11 -11 239 -180 272 -203 165 -109 342
-208 507 -283 143 -65 202 -89 287 -119 36 -12 72 -25 80 -28 8 -3 17 -6 20
-7 45 -14 126 -39 130 -40 3 -1 25 -7 50 -14 67 -20 251 -62 285 -66 17 -2 68
-11 115 -19 78 -13 136 -21 245 -32 22 -2 104 -7 181 -10 l141 -6 -1 678 -1
679 -50 1 c-62 2 -211 14 -247 20 -16 2 -43 7 -60 10 -18 3 -45 7 -60 9 -15 2
-37 7 -49 10 -11 4 -31 8 -42 10 -12 2 -31 6 -42 9 -11 3 -38 10 -60 15 -103
26 -397 141 -440 172 -6 4 -37 21 -68 38 -167 88 -361 236 -530 406 -69 70
-217 249 -217 264 0 5 -4 11 -9 13 -11 4 -101 144 -132 204 -13 27 -26 51 -29
54 -6 6 -31 57 -65 135 -15 33 -31 69 -36 80 -17 38 -52 139 -66 189 -28 100
-41 152 -49 191 -4 22 -8 42 -9 45 -1 5 -17 106 -20 130 -23 171 -22 416 0
605 14 115 92 439 114 470 4 6 13 28 20 50 26 76 78 186 154 325 32 58 119
188 171 255 61 78 56 73 167 192 53 56 158 153 209 193 25 19 47 37 50 41 10
12 196 135 240 159 25 13 53 31 63 39 9 8 17 11 17 7 0 -4 12 1 28 11 24 17
78 45 92 48 3 0 28 11 55 24 86 39 320 114 395 128 14 2 36 6 50 9 109 24 283
44 399 45 l58 1 0 679 1 680 -110 -3 c-60 -2 -110 -4 -111 -4z"/>
<path d="M4119 11939 c0 -24 -1 -85 -2 -136 -1 -52 2 -89 7 -86 5 4 6 1 2 -5
-10 -17 -14 -82 -4 -82 4 0 5 -7 1 -15 -9 -26 -9 -144 1 -138 5 4 6 1 2 -5
-10 -17 -14 -82 -4 -88 5 -3 6 -10 2 -15 -9 -15 -11 -579 -2 -579 4 0 5 -7 2
-15 -11 -27 -10 -116 1 -125 6 -5 55 -11 110 -14 98 -6 135 -10 205 -22 19 -3
44 -7 55 -9 79 -13 105 -18 140 -27 22 -5 47 -12 55 -14 40 -9 152 -44 210
-67 126 -48 135 -52 141 -60 3 -5 9 -8 13 -7 7 3 176 -80 186 -90 3 -3 19 -12
35 -20 17 -8 36 -21 43 -27 7 -7 17 -13 21 -13 4 0 21 -11 37 -25 16 -14 34
-25 41 -25 6 0 13 -3 15 -7 2 -5 26 -25 53 -46 28 -20 66 -50 85 -64 19 -15
434 -425 921 -911 l886 -884 -857 -856 c-472 -472 -871 -869 -886 -883 -33
-29 -181 -147 -210 -167 -69 -46 -190 -122 -197 -122 -4 0 -25 -11 -47 -25
-22 -14 -46 -25 -54 -25 -8 0 -16 -3 -18 -7 -3 -8 -27 -20 -113 -58 -50 -22
-291 -103 -325 -109 -14 -2 -25 -5 -25 -6 0 -1 -9 -3 -20 -5 -11 -2 -31 -6
-45 -9 -104 -24 -267 -45 -404 -50 -41 -1 -50 -5 -57 -24 -6 -16 -5 -21 3 -16
7 4 8 3 4 -4 -10 -17 -14 -82 -4 -82 4 0 5 -7 1 -15 -9 -26 -9 -144 1 -138 5
4 6 1 2 -5 -10 -17 -14 -82 -4 -88 5 -3 5 -10 2 -16 -3 -5 -6 -220 -6 -476 l0
-467 133 0 c117 1 225 7 309 19 90 13 117 17 130 21 8 2 35 6 60 9 25 3 101
19 170 36 69 17 135 32 148 35 13 3 58 17 99 31 42 14 84 26 94 27 11 1 19 4
19 7 0 3 21 12 48 19 26 8 54 18 62 22 8 4 40 17 70 29 80 31 82 31 245 110
83 40 152 76 155 79 5 6 79 47 117 65 13 6 23 14 23 19 0 4 4 7 9 7 10 0 130
77 171 110 14 11 28 20 33 20 4 0 15 7 25 16 9 8 42 34 72 57 30 23 60 46 66
52 6 5 42 35 80 65 38 30 473 459 968 952 l899 898 847 -848 c859 -859 913
-912 1009 -992 29 -25 59 -50 65 -55 6 -6 36 -29 66 -53 30 -23 60 -46 67 -52
7 -5 16 -10 22 -10 5 0 11 -4 13 -9 2 -5 35 -30 73 -55 39 -25 75 -49 80 -54
12 -9 123 -77 180 -110 84 -47 363 -182 379 -182 9 0 16 -4 16 -10 0 -5 6 -10
12 -10 7 0 53 -15 103 -34 134 -51 129 -50 170 -61 17 -4 35 -10 40 -14 6 -3
15 -6 20 -7 6 -2 70 -18 143 -37 73 -20 135 -36 137 -36 3 0 15 -3 28 -6 12
-2 36 -7 52 -9 17 -3 40 -7 52 -10 26 -6 109 -18 143 -22 14 -1 25 -3 25 -4 0
-1 16 -3 35 -5 19 -2 67 -7 105 -11 39 -4 126 -8 195 -8 l125 -1 0 665 0 665
-22 -1 c-13 0 -23 2 -23 5 0 3 -28 6 -63 7 -93 1 -227 17 -327 39 -14 4 -34 7
-45 9 -11 2 -56 13 -100 25 -44 13 -84 24 -90 25 -5 1 -16 5 -22 9 -7 5 -13 5
-13 1 0 -3 -11 1 -25 10 -14 9 -25 14 -25 12 0 -3 -17 2 -37 11 -48 19 -87 35
-90 34 -2 0 -192 96 -284 144 -10 5 -19 13 -19 17 0 5 -5 8 -11 8 -9 0 -127
76 -139 89 -3 4 -22 17 -42 31 -21 14 -38 28 -38 33 0 4 -4 7 -9 7 -18 0 -143
122 -974 952 l-859 857 874 873 c480 480 897 891 926 913 28 21 52 43 52 47 0
4 7 8 15 8 7 0 18 6 22 13 24 41 383 247 508 292 28 10 55 22 60 25 8 6 197
69 225 75 3 1 25 5 50 10 53 10 59 12 63 15 3 2 36 9 77 15 19 2 44 7 55 9 57
11 255 29 315 28 14 0 16 73 16 670 l-1 670 -135 -6 c-74 -4 -155 -9 -180 -11
-25 -3 -63 -7 -85 -10 -74 -7 -140 -16 -155 -20 -8 -2 -35 -7 -60 -10 -25 -3
-70 -12 -100 -20 -59 -14 -129 -29 -145 -30 -5 0 -14 -3 -20 -7 -5 -3 -26 -9
-45 -13 -53 -11 -288 -86 -350 -112 -8 -3 -17 -7 -20 -8 -3 -1 -22 -9 -44 -18
-21 -9 -42 -17 -46 -17 -5 0 -21 -6 -37 -14 -15 -8 -89 -44 -163 -80 -176 -86
-264 -135 -268 -146 -2 -6 -8 -10 -14 -10 -5 0 -49 -26 -96 -57 -48 -32 -92
-60 -97 -63 -19 -9 -170 -125 -173 -132 -2 -5 -10 -8 -17 -8 -7 0 -15 -4 -17
-9 -1 -4 -34 -35 -73 -67 -108 -90 -132 -114 -1025 -1007 l-837 -838 -879 879
c-860 860 -1030 1021 -1194 1133 -21 14 -46 33 -55 42 -9 10 -22 17 -30 17 -7
0 -15 3 -17 8 -5 12 -122 87 -258 165 -94 54 -239 125 -244 120 -3 -4 -6 -1
-6 5 0 7 -4 12 -10 12 -5 0 -33 11 -62 24 -113 51 -148 65 -148 59 0 -3 -6 -1
-12 5 -16 12 -274 99 -318 107 -18 3 -40 9 -49 14 -9 4 -29 11 -46 14 -16 3
-75 16 -130 27 -55 12 -109 23 -120 25 -36 6 -99 16 -135 21 -19 2 -53 7 -75
10 -68 11 -105 14 -262 20 l-153 7 -1 -44z"/>
<path d="M12982 11302 l0 -679 71 -2 c40 -1 90 -4 112 -6 69 -7 149 -17 165
-20 8 -2 35 -6 60 -10 25 -3 63 -11 85 -17 22 -5 51 -12 65 -15 14 -2 50 -11
80 -20 30 -9 60 -18 65 -19 6 -2 35 -12 65 -24 30 -12 69 -26 85 -32 35 -12
250 -117 311 -152 45 -25 186 -117 194 -126 3 -4 28 -23 55 -44 72 -54 160
-133 219 -195 28 -29 61 -63 74 -75 13 -11 42 -45 65 -76 49 -64 68 -88 82
-104 6 -6 28 -38 49 -71 22 -33 52 -79 68 -103 15 -24 28 -47 28 -51 0 -5 9
-20 20 -34 12 -15 20 -28 20 -29 -1 -4 86 -195 100 -220 6 -10 10 -22 10 -27
0 -5 5 -22 12 -38 6 -15 12 -32 14 -38 43 -137 63 -209 68 -241 4 -21 9 -48
13 -59 3 -11 7 -31 9 -45 1 -14 3 -25 4 -25 5 0 16 -93 27 -215 7 -82 6 -287
-2 -355 -3 -33 -7 -67 -7 -75 0 -8 -3 -37 -8 -65 -5 -27 -11 -66 -14 -85 -6
-42 -33 -163 -46 -205 -85 -277 -165 -449 -309 -670 -52 -79 -48 -74 -131
-175 -111 -135 -226 -248 -367 -359 -50 -39 -95 -71 -101 -71 -6 0 -12 -4 -14
-9 -1 -5 -41 -32 -88 -60 -47 -28 -89 -54 -95 -59 -5 -4 -26 -14 -45 -22 -19
-7 -42 -19 -50 -26 -8 -7 -19 -13 -25 -14 -9 -2 -52 -20 -131 -55 -32 -15
-209 -75 -234 -80 -8 -2 -15 -4 -15 -5 0 -1 -7 -3 -15 -5 -43 -10 -218 -47
-235 -50 -84 -13 -196 -23 -307 -27 l-56 -2 0 -679 0 -679 146 7 c81 3 163 8
182 10 54 5 153 17 175 21 11 2 40 6 65 9 25 3 56 8 70 11 14 3 36 8 50 10 28
5 128 26 148 31 6 2 20 5 30 7 9 3 17 5 17 6 0 1 11 3 24 6 13 2 49 12 79 20
30 9 60 17 66 19 6 1 18 5 26 8 14 5 89 30 100 32 3 1 13 5 22 9 9 4 22 9 30
10 7 2 22 7 33 11 11 5 69 28 128 52 59 24 163 71 230 105 67 33 137 68 155
77 17 8 32 19 32 23 0 4 4 8 10 8 8 0 98 51 156 88 75 48 260 181 320 231 178
149 254 220 387 363 54 58 109 120 122 138 14 19 28 36 33 39 4 3 38 47 75 96
37 50 70 95 75 100 17 23 121 184 154 240 20 33 50 84 67 113 17 29 31 57 31
62 0 5 11 26 25 46 14 20 23 40 20 44 -3 5 -2 10 2 12 10 4 59 110 56 120 -2
4 2 8 7 8 6 0 10 4 10 9 0 5 5 22 12 38 6 15 11 31 10 36 -1 4 2 7 6 7 4 0 14
21 21 48 8 26 18 52 22 58 5 6 10 19 12 30 1 10 5 24 9 29 5 9 52 157 78 250
16 55 42 159 45 180 2 11 10 56 19 100 19 95 44 270 54 375 8 90 7 553 -1 630
-4 30 -9 78 -12 105 -6 61 -18 141 -30 205 -3 14 -7 41 -10 60 -3 19 -9 44
-12 55 -3 11 -7 29 -8 40 -6 51 -107 402 -124 430 -3 6 -6 15 -7 21 -4 26 -98
251 -147 351 -46 95 -124 239 -160 298 -51 82 -145 225 -164 250 -35 45 -37
47 -63 85 -13 19 -32 42 -42 51 -10 9 -18 20 -18 24 0 10 -127 154 -227 257
-75 77 -178 174 -253 238 -14 12 -35 30 -48 41 -12 10 -27 19 -32 19 -6 0 -10
4 -10 8 0 14 -319 242 -339 242 -5 0 -11 4 -13 8 -3 7 -31 25 -133 82 -64 37
-295 152 -308 154 -7 1 -23 8 -37 16 -14 8 -27 15 -30 16 -8 2 -43 15 -75 29
-79 34 -381 131 -465 149 -45 10 -158 35 -162 37 -2 0 -12 2 -23 4 -11 1 -38
6 -60 10 -22 3 -51 8 -65 10 -14 2 -38 6 -55 9 -31 5 -126 16 -185 21 -19 2
-101 7 -181 10 l-147 7 0 -680z"/>
</g>
</svg>
